<?xml version="1.0" encoding="iso-8859-1"?>
<!-- Generator: Adobe Illustrator 19.0.0, SVG Export Plug-In . SVG Version: 6.00 Build 0)  -->
<svg version="1.1" id="Capa_1" xmlns="http://www.w3.org/2000/svg" xmlns:xlink="http://www.w3.org/1999/xlink" x="0px" y="0px"
	 viewBox="0 0 511.848 511.848" style="enable-background:new 0 0 511.848 511.848;" xml:space="preserve">
<g>
	<path style="fill:#71C285;" d="M393.249,68.663c6.907,6.866,18.062,6.866,24.968,0l24.968,24.968
		c-6.895,6.895-6.895,18.073,0,24.968c6.895,6.895,18.073,6.895,24.968,0l43.694,43.694L162.293,511.848l-43.694-43.694
		c6.895-6.895,6.895-18.073,0-24.968c-6.895-6.895-18.073-6.895-24.968,0l-24.968-24.968c6.895-6.895,6.895-18.073,0-24.968
		c-6.895-6.895-18.073-6.895-24.968,0L0,349.555L349.555,0l43.694,43.694C386.383,50.601,386.383,61.756,393.249,68.663z"/>
	<g>
		<path style="fill:#4C8056;" d="M49.976,358.411c-2.359-0.008-4.616-0.962-6.268-2.647c-1.658-1.627-2.582-3.858-2.56-6.181
			c-0.024-2.348,0.899-4.607,2.56-6.268c1.631-1.687,3.876-2.639,6.222-2.639c2.346,0,4.591,0.952,6.222,2.639
			c0.853,0.782,1.517,1.748,1.944,2.823c0.445,1.095,0.684,2.262,0.707,3.444c-0.014,1.153-0.254,2.293-0.707,3.354
			c-0.428,1.076-1.092,2.043-1.944,2.828C54.537,357.446,52.308,358.401,49.976,358.411z"/>
		<path style="fill:#4C8056;" d="M349.584,58.803c-2.36-0.008-4.618-0.963-6.268-2.651c-1.658-1.625-2.583-3.855-2.56-6.177
			c-0.024-2.348,0.899-4.607,2.56-6.268c3.488-3.313,8.96-3.313,12.448,0c1.685,1.651,2.638,3.909,2.647,6.268
			C358.292,54.801,354.409,58.685,349.584,58.803L349.584,58.803z"/>
	</g>
	<g>
		<path style="fill:#5E5F62;" d="M87.353,349.569l18.726-18.726c3.447-3.447,9.037-3.447,12.484,0l49.937,49.937
			c3.447,3.447,3.447,9.037,0,12.484l-18.726,18.726c-3.447,3.447-9.037,3.447-12.484,0l-49.937-49.937
			C83.906,358.606,83.906,353.016,87.353,349.569z"/>
		<path style="fill:#5E5F62;" d="M143.605,293.403l18.726-18.726c3.447-3.447,9.037-3.447,12.484,0l49.937,49.937
			c3.447,3.447,3.447,9.037,0,12.484l-18.726,18.726c-3.447,3.447-9.037,3.447-12.484,0l-49.937-49.937
			C140.157,302.44,140.157,296.851,143.605,293.403z"/>
		<path style="fill:#5E5F62;" d="M199.748,237.206l18.726-18.726c3.447-3.447,9.037-3.447,12.484,0l49.937,49.937
			c3.447,3.447,3.447,9.037,0,12.484l-18.726,18.726c-3.447,3.447-9.037,3.447-12.484,0l-49.937-49.937
			C196.301,246.243,196.301,240.653,199.748,237.206z"/>
	</g>
	<path style="fill:#ECF0F1;" d="M411.996,149.816l-12.447,12.447l-12.535,12.535l-12.447,12.447l-12.535,12.535l-12.447,12.447
		l-31.25,31.25c-1.649,1.653-3.888,2.582-6.223,2.582c-2.335,0-4.574-0.929-6.223-2.582l-49.964-49.964
		c-3.443-3.469-3.443-9.066,0-12.535l93.661-93.572c1.649-1.653,3.888-2.582,6.223-2.582s4.574,0.929,6.223,2.582l49.964,49.876
		C415.439,140.75,415.439,146.347,411.996,149.816z"/>
	<g>
		<path style="fill:#5E5F62;" d="M399.549,162.263l-12.535,12.535l-12.447-12.535c-1.692-1.628-2.648-3.875-2.648-6.223
			c0-2.348,0.956-4.595,2.648-6.223c1.649-1.653,3.888-2.582,6.223-2.582c2.335,0,4.574,0.929,6.223,2.582L399.549,162.263z"/>
		<path style="fill:#5E5F62;" d="M374.567,187.245l-12.535,12.535l-12.447-12.535c-2.223-2.223-3.092-5.464-2.278-8.501
			c0.814-3.037,3.186-5.41,6.223-6.223c3.037-0.814,6.278,0.055,8.501,2.278L374.567,187.245z"/>
		<path style="fill:#5E5F62;" d="M349.585,212.228l-12.535,12.535l-12.447-12.535c-2.223-2.223-3.092-5.464-2.278-8.501
			c0.814-3.037,3.186-5.41,6.223-6.223c3.037-0.814,6.278,0.055,8.501,2.278L349.585,212.228z"/>
	</g>
	<g>
		<path style="fill:#A5A5A4;" d="M305.859,189.847c-3.57-0.001-6.788-2.152-8.154-5.45c-1.366-3.298-0.611-7.094,1.913-9.619
			l24.97-24.966c2.23-2.23,5.48-3.101,8.526-2.285c3.046,0.816,5.425,3.195,6.241,6.241c0.816,3.046-0.055,6.296-2.285,8.526
			l-24.97,24.966C310.448,188.919,308.201,189.849,305.859,189.847z"/>
		<path style="fill:#A5A5A4;" d="M355.765,139.928c-3.583,0.01-6.814-2.152-8.172-5.467c-1.358-3.315-0.57-7.123,1.99-9.628
			c3.467-3.366,8.981-3.366,12.448,0c0.823,0.807,1.482,1.766,1.94,2.823c0.42,1.099,0.631,2.267,0.621,3.444
			c0.007,2.345-0.914,4.598-2.56,6.268C360.34,138.98,358.102,139.894,355.765,139.928z"/>
	</g>
	
		<rect x="144.6" y="469.204" transform="matrix(-0.7071 0.7071 -0.7071 -0.7071 621.2495 716.3853)" style="fill:#B19046;" width="35.31" height="35.31"/>
	
		<rect x="112.698" y="306.897" transform="matrix(-0.7071 0.7071 -0.7071 -0.7071 783.5377 324.5527)" style="fill:#E4C05C;" width="423.708" height="35.311"/>
	
		<rect x="469.196" y="144.632" transform="matrix(-0.7071 0.7071 -0.7071 -0.7071 945.852 -67.2145)" style="fill:#B19046;" width="35.301" height="35.301"/>
</g>
<g>
</g>
<g>
</g>
<g>
</g>
<g>
</g>
<g>
</g>
<g>
</g>
<g>
</g>
<g>
</g>
<g>
</g>
<g>
</g>
<g>
</g>
<g>
</g>
<g>
</g>
<g>
</g>
<g>
</g>
</svg>
